<?xml version="1.0" standalone="no"?>
<!DOCTYPE svg PUBLIC "-//W3C//DTD SVG 1.1//EN" 
  "http://www.w3.org/Graphics/SVG/1.1/DTD/svg11.dtd">
<svg width="1024" height="1024" viewBox="0 0 1024 1024"
     xmlns="http://www.w3.org/2000/svg" version="1.1">
<desc>'', OBJ0001, (Blender 2.70 (sub 0))</desc>
<polygon stroke="black" stroke-width="1" fill="grey" fill-opacity="0.25" points="591.328,737.874 584.888,707.576 572.289,679.278 " />
<polygon stroke="black" stroke-width="1" fill="grey" fill-opacity="0.25" points="591.328,768.850 572.289,679.278 554.083,654.218 " />
<polygon stroke="black" stroke-width="1" fill="grey" fill-opacity="0.25" points="584.888,799.148 554.083,654.218 531.063,633.492 " />
<polygon stroke="black" stroke-width="1" fill="grey" fill-opacity="0.25" points="572.289,827.445 531.063,633.492 504.238,618.004 " />
<polygon stroke="black" stroke-width="1" fill="grey" fill-opacity="0.25" points="554.083,852.505 504.238,618.004 474.779,608.432 " />
<polygon stroke="black" stroke-width="1" fill="grey" fill-opacity="0.25" points="531.064,873.231 474.779,608.432 443.973,605.195 " />
<polygon stroke="black" stroke-width="1" fill="grey" fill-opacity="0.25" points="504.238,888.719 443.973,605.195 413.167,608.433 " />
<polygon stroke="black" stroke-width="1" fill="grey" fill-opacity="0.25" points="474.779,898.291 413.167,608.433 383.708,618.004 " />
<polygon stroke="black" stroke-width="1" fill="grey" fill-opacity="0.25" points="443.973,901.529 383.708,618.004 356.883,633.492 " />
<polygon stroke="black" stroke-width="1" fill="grey" fill-opacity="0.25" points="413.168,898.291 356.883,633.492 333.864,654.219 " />
<polygon stroke="black" stroke-width="1" fill="grey" fill-opacity="0.25" points="383.708,888.719 333.864,654.219 315.657,679.278 " />
<polygon stroke="black" stroke-width="1" fill="grey" fill-opacity="0.25" points="356.883,873.232 315.657,679.278 303.058,707.576 " />
<polygon stroke="black" stroke-width="1" fill="grey" fill-opacity="0.25" points="333.864,852.505 303.058,707.576 296.618,737.874 " />
<polygon stroke="black" stroke-width="1" fill="grey" fill-opacity="0.25" points="315.657,827.445 296.618,737.874 296.618,768.849 " />
<polygon stroke="black" stroke-width="1" fill="grey" fill-opacity="0.25" points="283.619,693.909 293.191,784.979 296.429,754.173 " />
<polygon stroke="black" stroke-width="1" fill="grey" fill-opacity="0.25" points="268.131,667.083 283.619,814.438 293.191,784.979 " />
<polygon stroke="black" stroke-width="1" fill="grey" fill-opacity="0.25" points="247.405,644.064 268.131,841.264 283.619,814.438 " />
<polygon stroke="black" stroke-width="1" fill="grey" fill-opacity="0.25" points="222.345,625.857 247.405,864.283 268.131,841.264 " />
<polygon stroke="black" stroke-width="1" fill="grey" fill-opacity="0.25" points="194.048,613.258 222.345,882.490 247.405,864.283 " />
<polygon stroke="black" stroke-width="1" fill="grey" fill-opacity="0.25" points="163.750,606.818 194.048,895.089 222.345,882.490 " />
<polygon stroke="black" stroke-width="1" fill="grey" fill-opacity="0.25" points="132.774,606.818 163.749,901.529 194.048,895.089 " />
<polygon stroke="black" stroke-width="1" fill="grey" fill-opacity="0.25" points="102.476,613.258 132.774,901.529 163.749,901.529 " />
<polygon stroke="black" stroke-width="1" fill="grey" fill-opacity="0.25" points="74.178,625.857 102.475,895.089 132.774,901.529 " />
<polygon stroke="black" stroke-width="1" fill="grey" fill-opacity="0.25" points="49.119,644.064 74.178,882.490 102.475,895.089 " />
<polygon stroke="black" stroke-width="1" fill="grey" fill-opacity="0.25" points="28.392,667.083 49.118,864.283 74.178,882.490 " />
<polygon stroke="black" stroke-width="1" fill="grey" fill-opacity="0.25" points="12.904,693.909 28.392,841.264 49.118,864.283 " />
<polygon stroke="black" stroke-width="1" fill="grey" fill-opacity="0.25" points="3.332,723.368 12.904,814.438 28.392,841.264 " />
<polygon stroke="black" stroke-width="1" fill="grey" fill-opacity="0.25" points="0.094,754.173 3.332,784.979 12.904,814.438 " />
<polygon stroke="black" stroke-width="1" fill="grey" fill-opacity="0.25" points="1023.646,1000.237 983.992,1000.317 984.222,1018.121 " />
<polygon stroke="black" stroke-width="1" fill="grey" fill-opacity="0.25" points="983.992,1000.317 951.891,1000.414 951.748,1018.073 " />
<polygon stroke="black" stroke-width="1" fill="grey" fill-opacity="0.25" points="951.891,1000.414 918.085,999.891 917.893,1017.988 " />
<polygon stroke="black" stroke-width="1" fill="grey" fill-opacity="0.25" points="918.085,999.891 884.339,999.721 884.260,1017.856 " />
<polygon stroke="black" stroke-width="1" fill="grey" fill-opacity="0.25" points="884.339,999.721 850.607,999.685 850.570,1017.838 " />
<polygon stroke="black" stroke-width="1" fill="grey" fill-opacity="0.25" points="850.607,999.685 816.877,999.699 816.857,1017.861 " />
<polygon stroke="black" stroke-width="1" fill="grey" fill-opacity="0.25" points="816.877,999.699 783.144,999.735 783.131,1017.901 " />
<polygon stroke="black" stroke-width="1" fill="grey" fill-opacity="0.25" points="783.144,999.735 749.408,999.780 749.398,1017.949 " />
<polygon stroke="black" stroke-width="1" fill="grey" fill-opacity="0.25" points="749.408,999.780 715.667,999.831 715.660,1018.003 " />
<polygon stroke="black" stroke-width="1" fill="grey" fill-opacity="0.25" points="715.667,999.831 681.921,999.885 681.916,1018.060 " />
<polygon stroke="black" stroke-width="1" fill="grey" fill-opacity="0.25" points="681.921,999.885 648.170,999.943 648.167,1018.122 " />
<polygon stroke="black" stroke-width="1" fill="grey" fill-opacity="0.25" points="648.170,999.943 614.412,1000.005 614.411,1018.187 " />
<polygon stroke="black" stroke-width="1" fill="grey" fill-opacity="0.25" points="614.412,1000.005 580.648,1000.071 580.649,1018.257 " />
<polygon stroke="black" stroke-width="1" fill="grey" fill-opacity="0.25" points="580.648,1000.071 546.877,1000.141 546.880,1018.331 " />
<polygon stroke="black" stroke-width="1" fill="grey" fill-opacity="0.25" points="546.877,1000.141 513.097,1000.215 513.102,1018.410 " />
<polygon stroke="black" stroke-width="1" fill="grey" fill-opacity="0.25" points="513.097,1000.215 479.306,1000.292 479.313,1018.493 " />
<polygon stroke="black" stroke-width="1" fill="grey" fill-opacity="0.25" points="479.306,1000.292 445.507,1000.371 445.514,1018.576 " />
<polygon stroke="black" stroke-width="1" fill="grey" fill-opacity="0.25" points="445.507,1000.371 411.700,1000.450 411.708,1018.659 " />
<polygon stroke="black" stroke-width="1" fill="grey" fill-opacity="0.25" points="411.700,1000.450 377.887,1000.531 377.895,1018.743 " />
<polygon stroke="black" stroke-width="1" fill="grey" fill-opacity="0.25" points="377.887,1000.531 344.068,1000.612 344.076,1018.827 " />
<polygon stroke="black" stroke-width="1" fill="grey" fill-opacity="0.25" points="344.068,1000.612 310.245,1000.693 310.253,1018.911 " />
<polygon stroke="black" stroke-width="1" fill="grey" fill-opacity="0.25" points="310.245,1000.693 276.417,1000.775 276.425,1018.995 " />
<polygon stroke="black" stroke-width="1" fill="grey" fill-opacity="0.25" points="276.417,1000.775 242.584,1000.857 242.593,1019.080 " />
<polygon stroke="black" stroke-width="1" fill="grey" fill-opacity="0.25" points="242.584,1000.857 208.744,1000.939 208.756,1019.167 " />
<polygon stroke="black" stroke-width="1" fill="grey" fill-opacity="0.25" points="208.744,1000.939 174.888,1001.023 174.907,1019.264 " />
<polygon stroke="black" stroke-width="1" fill="grey" fill-opacity="0.25" points="174.888,1001.023 140.991,1001.114 141.032,1019.387 " />
<polygon stroke="black" stroke-width="1" fill="grey" fill-opacity="0.25" points="140.991,1001.114 106.986,1001.227 107.090,1019.580 " />
<polygon stroke="black" stroke-width="1" fill="grey" fill-opacity="0.25" points="106.986,1001.227 72.689,1001.425 72.987,1019.977 " />
<polygon stroke="black" stroke-width="1" fill="grey" fill-opacity="0.25" points="72.689,1001.425 38.556,1001.957 38.522,1020.979 " />
<polygon stroke="black" stroke-width="1" fill="grey" fill-opacity="0.25" points="38.556,1001.957 -0.187,1001.909 0.167,1021.232 " />
<polygon stroke="black" stroke-width="1" fill="grey" fill-opacity="0.25" points="1023.730,923.674 984.300,923.984 983.992,1000.317 " />
<polygon stroke="black" stroke-width="1" fill="grey" fill-opacity="0.25" points="984.300,923.984 951.549,924.040 951.891,1000.414 " />
<polygon stroke="black" stroke-width="1" fill="grey" fill-opacity="0.25" points="951.549,924.040 917.362,924.187 918.085,999.891 " />
<polygon stroke="black" stroke-width="1" fill="grey" fill-opacity="0.25" points="917.362,924.187 883.464,924.252 884.339,999.721 " />
<polygon stroke="black" stroke-width="1" fill="grey" fill-opacity="0.25" points="883.464,924.252 849.670,924.295 850.607,999.685 " />
<polygon stroke="black" stroke-width="1" fill="grey" fill-opacity="0.25" points="849.670,924.295 815.914,924.334 816.877,999.699 " />
<polygon stroke="black" stroke-width="1" fill="grey" fill-opacity="0.25" points="815.914,924.334 782.168,924.372 783.144,999.735 " />
<polygon stroke="black" stroke-width="1" fill="grey" fill-opacity="0.25" points="782.168,924.372 748.423,924.412 749.408,999.780 " />
<polygon stroke="black" stroke-width="1" fill="grey" fill-opacity="0.25" points="748.423,924.412 714.676,924.453 715.667,999.831 " />
<polygon stroke="black" stroke-width="1" fill="grey" fill-opacity="0.25" points="714.676,924.453 680.923,924.496 681.921,999.885 " />
<polygon stroke="black" stroke-width="1" fill="grey" fill-opacity="0.25" points="680.923,924.496 647.165,924.540 648.170,999.943 " />
<polygon stroke="black" stroke-width="1" fill="grey" fill-opacity="0.25" points="647.165,924.540 613.401,924.588 614.412,1000.005 " />
<polygon stroke="black" stroke-width="1" fill="grey" fill-opacity="0.25" points="613.401,924.588 579.629,924.637 580.648,1000.071 " />
<polygon stroke="black" stroke-width="1" fill="grey" fill-opacity="0.25" points="579.629,924.637 545.849,924.690 546.877,1000.141 " />
<polygon stroke="black" stroke-width="1" fill="grey" fill-opacity="0.25" points="545.849,924.690 512.062,924.746 513.097,1000.215 " />
<polygon stroke="black" stroke-width="1" fill="grey" fill-opacity="0.25" points="512.062,924.746 478.265,924.805 479.306,1000.292 " />
<polygon stroke="black" stroke-width="1" fill="grey" fill-opacity="0.25" points="478.265,924.805 444.461,924.867 445.507,1000.371 " />
<polygon stroke="black" stroke-width="1" fill="grey" fill-opacity="0.25" points="444.461,924.867 410.650,924.932 411.700,1000.450 " />
<polygon stroke="black" stroke-width="1" fill="grey" fill-opacity="0.25" points="410.650,924.932 376.833,924.999 377.887,1000.531 " />
<polygon stroke="black" stroke-width="1" fill="grey" fill-opacity="0.25" points="376.833,924.999 343.012,925.069 344.068,1000.612 " />
<polygon stroke="black" stroke-width="1" fill="grey" fill-opacity="0.25" points="343.012,925.069 309.186,925.142 310.245,1000.693 " />
<polygon stroke="black" stroke-width="1" fill="grey" fill-opacity="0.25" points="309.186,925.142 275.357,925.215 276.417,1000.775 " />
<polygon stroke="black" stroke-width="1" fill="grey" fill-opacity="0.25" points="275.357,925.215 241.525,925.287 242.584,1000.857 " />
<polygon stroke="black" stroke-width="1" fill="grey" fill-opacity="0.25" points="241.525,925.287 207.692,925.354 208.744,1000.939 " />
<polygon stroke="black" stroke-width="1" fill="grey" fill-opacity="0.25" points="207.692,925.354 173.856,925.405 174.888,1001.023 " />
<polygon stroke="black" stroke-width="1" fill="grey" fill-opacity="0.25" points="173.856,925.405 140.015,925.407 140.991,1001.114 " />
<polygon stroke="black" stroke-width="1" fill="grey" fill-opacity="0.25" points="140.015,925.407 106.157,925.279 106.986,1001.227 " />
<polygon stroke="black" stroke-width="1" fill="grey" fill-opacity="0.25" points="106.157,925.279 72.237,924.800 72.689,1001.425 " />
<polygon stroke="black" stroke-width="1" fill="grey" fill-opacity="0.25" points="72.237,924.800 38.365,924.764 38.556,1001.957 " />
<polygon stroke="black" stroke-width="1" fill="grey" fill-opacity="0.25" points="38.365,924.764 -0.077,924.849 -0.187,1001.909 " />
<polygon stroke="black" stroke-width="1" fill="grey" fill-opacity="0.25" points="1023.662,905.659 984.505,905.566 984.300,923.984 " />
<polygon stroke="black" stroke-width="1" fill="grey" fill-opacity="0.25" points="984.505,905.566 951.278,905.529 951.549,924.040 " />
<polygon stroke="black" stroke-width="1" fill="grey" fill-opacity="0.25" points="951.278,905.529 917.285,905.873 917.362,924.187 " />
<polygon stroke="black" stroke-width="1" fill="grey" fill-opacity="0.25" points="917.285,905.873 883.449,906.016 883.464,924.252 " />
<polygon stroke="black" stroke-width="1" fill="grey" fill-opacity="0.25" points="883.449,906.016 849.676,906.090 849.670,924.295 " />
<polygon stroke="black" stroke-width="1" fill="grey" fill-opacity="0.25" points="849.676,906.090 815.926,906.139 815.914,924.334 " />
<polygon stroke="black" stroke-width="1" fill="grey" fill-opacity="0.25" points="815.926,906.139 782.183,906.179 782.168,924.372 " />
<polygon stroke="black" stroke-width="1" fill="grey" fill-opacity="0.25" points="782.183,906.179 748.438,906.218 748.423,924.412 " />
<polygon stroke="black" stroke-width="1" fill="grey" fill-opacity="0.25" points="748.438,906.218 714.690,906.257 714.676,924.453 " />
<polygon stroke="black" stroke-width="1" fill="grey" fill-opacity="0.25" points="714.690,906.257 680.937,906.297 680.923,924.496 " />
<polygon stroke="black" stroke-width="1" fill="grey" fill-opacity="0.25" points="680.937,906.297 647.178,906.338 647.165,924.540 " />
<polygon stroke="black" stroke-width="1" fill="grey" fill-opacity="0.25" points="647.178,906.338 613.412,906.382 613.401,924.588 " />
<polygon stroke="black" stroke-width="1" fill="grey" fill-opacity="0.25" points="613.412,906.382 579.639,906.427 579.629,924.637 " />
<polygon stroke="black" stroke-width="1" fill="grey" fill-opacity="0.25" points="579.639,906.427 545.858,906.475 545.849,924.690 " />
<polygon stroke="black" stroke-width="1" fill="grey" fill-opacity="0.25" points="545.858,906.475 512.068,906.527 512.062,924.746 " />
<polygon stroke="black" stroke-width="1" fill="grey" fill-opacity="0.25" points="512.068,906.527 478.270,906.581 478.265,924.805 " />
<polygon stroke="black" stroke-width="1" fill="grey" fill-opacity="0.25" points="478.270,906.581 444.465,906.639 444.461,924.867 " />
<polygon stroke="black" stroke-width="1" fill="grey" fill-opacity="0.25" points="444.465,906.639 410.652,906.701 410.650,924.932 " />
<polygon stroke="black" stroke-width="1" fill="grey" fill-opacity="0.25" points="410.652,906.701 376.833,906.766 376.833,924.999 " />
<polygon stroke="black" stroke-width="1" fill="grey" fill-opacity="0.25" points="376.833,906.766 343.010,906.833 343.012,925.069 " />
<polygon stroke="black" stroke-width="1" fill="grey" fill-opacity="0.25" points="343.010,906.833 309.183,906.904 309.186,925.142 " />
<polygon stroke="black" stroke-width="1" fill="grey" fill-opacity="0.25" points="309.183,906.904 275.354,906.976 275.357,925.215 " />
<polygon stroke="black" stroke-width="1" fill="grey" fill-opacity="0.25" points="275.354,906.976 241.523,907.048 241.525,925.287 " />
<polygon stroke="black" stroke-width="1" fill="grey" fill-opacity="0.25" points="241.523,907.048 207.695,907.118 207.692,925.354 " />
<polygon stroke="black" stroke-width="1" fill="grey" fill-opacity="0.25" points="207.695,907.118 173.874,907.174 173.856,925.405 " />
<polygon stroke="black" stroke-width="1" fill="grey" fill-opacity="0.25" points="173.874,907.174 140.074,907.193 140.015,925.407 " />
<polygon stroke="black" stroke-width="1" fill="grey" fill-opacity="0.25" points="140.074,907.193 106.327,907.102 106.157,925.279 " />
<polygon stroke="black" stroke-width="1" fill="grey" fill-opacity="0.25" points="106.327,907.102 72.710,906.707 72.237,924.800 " />
<polygon stroke="black" stroke-width="1" fill="grey" fill-opacity="0.25" points="72.710,906.707 38.432,906.597 38.365,924.764 " />
<polygon stroke="black" stroke-width="1" fill="grey" fill-opacity="0.25" points="38.432,906.597 0.037,906.503 -0.077,924.849 " />
<polygon stroke="black" stroke-width="1" fill="grey" fill-opacity="0.25" points="591.328,737.874 572.289,679.278 591.328,768.850 " />
<polygon stroke="black" stroke-width="1" fill="grey" fill-opacity="0.25" points="591.328,768.850 554.083,654.218 584.888,799.148 " />
<polygon stroke="black" stroke-width="1" fill="grey" fill-opacity="0.25" points="584.888,799.148 531.063,633.492 572.289,827.445 " />
<polygon stroke="black" stroke-width="1" fill="grey" fill-opacity="0.25" points="572.289,827.445 504.238,618.004 554.083,852.505 " />
<polygon stroke="black" stroke-width="1" fill="grey" fill-opacity="0.25" points="554.083,852.505 474.779,608.432 531.064,873.231 " />
<polygon stroke="black" stroke-width="1" fill="grey" fill-opacity="0.25" points="531.064,873.231 443.973,605.195 504.238,888.719 " />
<polygon stroke="black" stroke-width="1" fill="grey" fill-opacity="0.25" points="504.238,888.719 413.167,608.433 474.779,898.291 " />
<polygon stroke="black" stroke-width="1" fill="grey" fill-opacity="0.25" points="474.779,898.291 383.708,618.004 443.973,901.529 " />
<polygon stroke="black" stroke-width="1" fill="grey" fill-opacity="0.25" points="443.973,901.529 356.883,633.492 413.168,898.291 " />
<polygon stroke="black" stroke-width="1" fill="grey" fill-opacity="0.25" points="413.168,898.291 333.864,654.219 383.708,888.719 " />
<polygon stroke="black" stroke-width="1" fill="grey" fill-opacity="0.25" points="383.708,888.719 315.657,679.278 356.883,873.232 " />
<polygon stroke="black" stroke-width="1" fill="grey" fill-opacity="0.25" points="356.883,873.232 303.058,707.576 333.864,852.505 " />
<polygon stroke="black" stroke-width="1" fill="grey" fill-opacity="0.25" points="333.864,852.505 296.618,737.874 315.657,827.445 " />
<polygon stroke="black" stroke-width="1" fill="grey" fill-opacity="0.25" points="315.657,827.445 296.618,768.849 303.058,799.148 " />
<polygon stroke="black" stroke-width="1" fill="grey" fill-opacity="0.25" points="283.619,693.909 296.429,754.173 293.191,723.368 " />
<polygon stroke="black" stroke-width="1" fill="grey" fill-opacity="0.25" points="268.131,667.083 293.191,784.979 283.619,693.909 " />
<polygon stroke="black" stroke-width="1" fill="grey" fill-opacity="0.25" points="247.405,644.064 283.619,814.438 268.131,667.083 " />
<polygon stroke="black" stroke-width="1" fill="grey" fill-opacity="0.25" points="222.345,625.857 268.131,841.264 247.405,644.064 " />
<polygon stroke="black" stroke-width="1" fill="grey" fill-opacity="0.25" points="194.048,613.258 247.405,864.283 222.345,625.857 " />
<polygon stroke="black" stroke-width="1" fill="grey" fill-opacity="0.25" points="163.750,606.818 222.345,882.490 194.048,613.258 " />
<polygon stroke="black" stroke-width="1" fill="grey" fill-opacity="0.25" points="132.774,606.818 194.048,895.089 163.750,606.818 " />
<polygon stroke="black" stroke-width="1" fill="grey" fill-opacity="0.25" points="102.476,613.258 163.749,901.529 132.774,606.818 " />
<polygon stroke="black" stroke-width="1" fill="grey" fill-opacity="0.25" points="74.178,625.857 132.774,901.529 102.476,613.258 " />
<polygon stroke="black" stroke-width="1" fill="grey" fill-opacity="0.25" points="49.119,644.064 102.475,895.089 74.178,625.857 " />
<polygon stroke="black" stroke-width="1" fill="grey" fill-opacity="0.25" points="28.392,667.083 74.178,882.490 49.119,644.064 " />
<polygon stroke="black" stroke-width="1" fill="grey" fill-opacity="0.25" points="12.904,693.909 49.118,864.283 28.392,667.083 " />
<polygon stroke="black" stroke-width="1" fill="grey" fill-opacity="0.25" points="3.332,723.368 28.392,841.264 12.904,693.909 " />
<polygon stroke="black" stroke-width="1" fill="grey" fill-opacity="0.25" points="0.094,754.173 12.904,814.438 3.332,723.368 " />
<polygon stroke="black" stroke-width="1" fill="grey" fill-opacity="0.25" points="1023.646,1000.237 984.222,1018.121 1023.591,1018.039 " />
<polygon stroke="black" stroke-width="1" fill="grey" fill-opacity="0.25" points="983.992,1000.317 951.748,1018.073 984.222,1018.121 " />
<polygon stroke="black" stroke-width="1" fill="grey" fill-opacity="0.25" points="951.891,1000.414 917.893,1017.988 951.748,1018.073 " />
<polygon stroke="black" stroke-width="1" fill="grey" fill-opacity="0.25" points="918.085,999.891 884.260,1017.856 917.893,1017.988 " />
<polygon stroke="black" stroke-width="1" fill="grey" fill-opacity="0.25" points="884.339,999.721 850.570,1017.838 884.260,1017.856 " />
<polygon stroke="black" stroke-width="1" fill="grey" fill-opacity="0.25" points="850.607,999.685 816.857,1017.861 850.570,1017.838 " />
<polygon stroke="black" stroke-width="1" fill="grey" fill-opacity="0.25" points="816.877,999.699 783.131,1017.901 816.857,1017.861 " />
<polygon stroke="black" stroke-width="1" fill="grey" fill-opacity="0.25" points="783.144,999.735 749.398,1017.949 783.131,1017.901 " />
<polygon stroke="black" stroke-width="1" fill="grey" fill-opacity="0.25" points="749.408,999.780 715.660,1018.003 749.398,1017.949 " />
<polygon stroke="black" stroke-width="1" fill="grey" fill-opacity="0.25" points="715.667,999.831 681.916,1018.060 715.660,1018.003 " />
<polygon stroke="black" stroke-width="1" fill="grey" fill-opacity="0.25" points="681.921,999.885 648.167,1018.122 681.916,1018.060 " />
<polygon stroke="black" stroke-width="1" fill="grey" fill-opacity="0.25" points="648.170,999.943 614.411,1018.187 648.167,1018.122 " />
<polygon stroke="black" stroke-width="1" fill="grey" fill-opacity="0.25" points="614.412,1000.005 580.649,1018.257 614.411,1018.187 " />
<polygon stroke="black" stroke-width="1" fill="grey" fill-opacity="0.25" points="580.648,1000.071 546.880,1018.331 580.649,1018.257 " />
<polygon stroke="black" stroke-width="1" fill="grey" fill-opacity="0.25" points="546.877,1000.141 513.102,1018.410 546.880,1018.331 " />
<polygon stroke="black" stroke-width="1" fill="grey" fill-opacity="0.25" points="513.097,1000.215 479.313,1018.493 513.102,1018.410 " />
<polygon stroke="black" stroke-width="1" fill="grey" fill-opacity="0.25" points="479.306,1000.292 445.514,1018.576 479.313,1018.493 " />
<polygon stroke="black" stroke-width="1" fill="grey" fill-opacity="0.25" points="445.507,1000.371 411.708,1018.659 445.514,1018.576 " />
<polygon stroke="black" stroke-width="1" fill="grey" fill-opacity="0.25" points="411.700,1000.450 377.895,1018.743 411.708,1018.659 " />
<polygon stroke="black" stroke-width="1" fill="grey" fill-opacity="0.25" points="377.887,1000.531 344.076,1018.827 377.895,1018.743 " />
<polygon stroke="black" stroke-width="1" fill="grey" fill-opacity="0.25" points="344.068,1000.612 310.253,1018.911 344.076,1018.827 " />
<polygon stroke="black" stroke-width="1" fill="grey" fill-opacity="0.25" points="310.245,1000.693 276.425,1018.995 310.253,1018.911 " />
<polygon stroke="black" stroke-width="1" fill="grey" fill-opacity="0.25" points="276.417,1000.775 242.593,1019.080 276.425,1018.995 " />
<polygon stroke="black" stroke-width="1" fill="grey" fill-opacity="0.25" points="242.584,1000.857 208.756,1019.167 242.593,1019.080 " />
<polygon stroke="black" stroke-width="1" fill="grey" fill-opacity="0.25" points="208.744,1000.939 174.907,1019.264 208.756,1019.167 " />
<polygon stroke="black" stroke-width="1" fill="grey" fill-opacity="0.25" points="174.888,1001.023 141.032,1019.387 174.907,1019.264 " />
<polygon stroke="black" stroke-width="1" fill="grey" fill-opacity="0.25" points="140.991,1001.114 107.090,1019.580 141.032,1019.387 " />
<polygon stroke="black" stroke-width="1" fill="grey" fill-opacity="0.25" points="106.986,1001.227 72.987,1019.977 107.090,1019.580 " />
<polygon stroke="black" stroke-width="1" fill="grey" fill-opacity="0.25" points="72.689,1001.425 38.522,1020.979 72.987,1019.977 " />
<polygon stroke="black" stroke-width="1" fill="grey" fill-opacity="0.25" points="38.556,1001.957 0.167,1021.232 38.522,1020.979 " />
<polygon stroke="black" stroke-width="1" fill="grey" fill-opacity="0.25" points="1023.730,923.674 983.992,1000.317 1023.646,1000.237 " />
<polygon stroke="black" stroke-width="1" fill="grey" fill-opacity="0.25" points="984.300,923.984 951.891,1000.414 983.992,1000.317 " />
<polygon stroke="black" stroke-width="1" fill="grey" fill-opacity="0.25" points="951.549,924.040 918.085,999.891 951.891,1000.414 " />
<polygon stroke="black" stroke-width="1" fill="grey" fill-opacity="0.25" points="917.362,924.187 884.339,999.721 918.085,999.891 " />
<polygon stroke="black" stroke-width="1" fill="grey" fill-opacity="0.25" points="883.464,924.252 850.607,999.685 884.339,999.721 " />
<polygon stroke="black" stroke-width="1" fill="grey" fill-opacity="0.25" points="849.670,924.295 816.877,999.699 850.607,999.685 " />
<polygon stroke="black" stroke-width="1" fill="grey" fill-opacity="0.25" points="815.914,924.334 783.144,999.735 816.877,999.699 " />
<polygon stroke="black" stroke-width="1" fill="grey" fill-opacity="0.25" points="782.168,924.372 749.408,999.780 783.144,999.735 " />
<polygon stroke="black" stroke-width="1" fill="grey" fill-opacity="0.25" points="748.423,924.412 715.667,999.831 749.408,999.780 " />
<polygon stroke="black" stroke-width="1" fill="grey" fill-opacity="0.25" points="714.676,924.453 681.921,999.885 715.667,999.831 " />
<polygon stroke="black" stroke-width="1" fill="grey" fill-opacity="0.25" points="680.923,924.496 648.170,999.943 681.921,999.885 " />
<polygon stroke="black" stroke-width="1" fill="grey" fill-opacity="0.25" points="647.165,924.540 614.412,1000.005 648.170,999.943 " />
<polygon stroke="black" stroke-width="1" fill="grey" fill-opacity="0.25" points="613.401,924.588 580.648,1000.071 614.412,1000.005 " />
<polygon stroke="black" stroke-width="1" fill="grey" fill-opacity="0.25" points="579.629,924.637 546.877,1000.141 580.648,1000.071 " />
<polygon stroke="black" stroke-width="1" fill="grey" fill-opacity="0.25" points="545.849,924.690 513.097,1000.215 546.877,1000.141 " />
<polygon stroke="black" stroke-width="1" fill="grey" fill-opacity="0.25" points="512.062,924.746 479.306,1000.292 513.097,1000.215 " />
<polygon stroke="black" stroke-width="1" fill="grey" fill-opacity="0.25" points="478.265,924.805 445.507,1000.371 479.306,1000.292 " />
<polygon stroke="black" stroke-width="1" fill="grey" fill-opacity="0.25" points="444.461,924.867 411.700,1000.450 445.507,1000.371 " />
<polygon stroke="black" stroke-width="1" fill="grey" fill-opacity="0.25" points="410.650,924.932 377.887,1000.531 411.700,1000.450 " />
<polygon stroke="black" stroke-width="1" fill="grey" fill-opacity="0.25" points="376.833,924.999 344.068,1000.612 377.887,1000.531 " />
<polygon stroke="black" stroke-width="1" fill="grey" fill-opacity="0.25" points="343.012,925.069 310.245,1000.693 344.068,1000.612 " />
<polygon stroke="black" stroke-width="1" fill="grey" fill-opacity="0.25" points="309.186,925.142 276.417,1000.775 310.245,1000.693 " />
<polygon stroke="black" stroke-width="1" fill="grey" fill-opacity="0.25" points="275.357,925.215 242.584,1000.857 276.417,1000.775 " />
<polygon stroke="black" stroke-width="1" fill="grey" fill-opacity="0.25" points="241.525,925.287 208.744,1000.939 242.584,1000.857 " />
<polygon stroke="black" stroke-width="1" fill="grey" fill-opacity="0.25" points="207.692,925.354 174.888,1001.023 208.744,1000.939 " />
<polygon stroke="black" stroke-width="1" fill="grey" fill-opacity="0.25" points="173.856,925.405 140.991,1001.114 174.888,1001.023 " />
<polygon stroke="black" stroke-width="1" fill="grey" fill-opacity="0.25" points="140.015,925.407 106.986,1001.227 140.991,1001.114 " />
<polygon stroke="black" stroke-width="1" fill="grey" fill-opacity="0.25" points="106.157,925.279 72.689,1001.425 106.986,1001.227 " />
<polygon stroke="black" stroke-width="1" fill="grey" fill-opacity="0.25" points="72.237,924.800 38.556,1001.957 72.689,1001.425 " />
<polygon stroke="black" stroke-width="1" fill="grey" fill-opacity="0.25" points="38.365,924.764 -0.187,1001.909 38.556,1001.957 " />
<polygon stroke="black" stroke-width="1" fill="grey" fill-opacity="0.25" points="1023.662,905.659 984.300,923.984 1023.730,923.674 " />
<polygon stroke="black" stroke-width="1" fill="grey" fill-opacity="0.25" points="984.505,905.566 951.549,924.040 984.300,923.984 " />
<polygon stroke="black" stroke-width="1" fill="grey" fill-opacity="0.25" points="951.278,905.529 917.362,924.187 951.549,924.040 " />
<polygon stroke="black" stroke-width="1" fill="grey" fill-opacity="0.25" points="917.285,905.873 883.464,924.252 917.362,924.187 " />
<polygon stroke="black" stroke-width="1" fill="grey" fill-opacity="0.25" points="883.449,906.016 849.670,924.295 883.464,924.252 " />
<polygon stroke="black" stroke-width="1" fill="grey" fill-opacity="0.25" points="849.676,906.090 815.914,924.334 849.670,924.295 " />
<polygon stroke="black" stroke-width="1" fill="grey" fill-opacity="0.25" points="815.926,906.139 782.168,924.372 815.914,924.334 " />
<polygon stroke="black" stroke-width="1" fill="grey" fill-opacity="0.25" points="782.183,906.179 748.423,924.412 782.168,924.372 " />
<polygon stroke="black" stroke-width="1" fill="grey" fill-opacity="0.25" points="748.438,906.218 714.676,924.453 748.423,924.412 " />
<polygon stroke="black" stroke-width="1" fill="grey" fill-opacity="0.25" points="714.690,906.257 680.923,924.496 714.676,924.453 " />
<polygon stroke="black" stroke-width="1" fill="grey" fill-opacity="0.25" points="680.937,906.297 647.165,924.540 680.923,924.496 " />
<polygon stroke="black" stroke-width="1" fill="grey" fill-opacity="0.25" points="647.178,906.338 613.401,924.588 647.165,924.540 " />
<polygon stroke="black" stroke-width="1" fill="grey" fill-opacity="0.25" points="613.412,906.382 579.629,924.637 613.401,924.588 " />
<polygon stroke="black" stroke-width="1" fill="grey" fill-opacity="0.25" points="579.639,906.427 545.849,924.690 579.629,924.637 " />
<polygon stroke="black" stroke-width="1" fill="grey" fill-opacity="0.25" points="545.858,906.475 512.062,924.746 545.849,924.690 " />
<polygon stroke="black" stroke-width="1" fill="grey" fill-opacity="0.25" points="512.068,906.527 478.265,924.805 512.062,924.746 " />
<polygon stroke="black" stroke-width="1" fill="grey" fill-opacity="0.25" points="478.270,906.581 444.461,924.867 478.265,924.805 " />
<polygon stroke="black" stroke-width="1" fill="grey" fill-opacity="0.25" points="444.465,906.639 410.650,924.932 444.461,924.867 " />
<polygon stroke="black" stroke-width="1" fill="grey" fill-opacity="0.25" points="410.652,906.701 376.833,924.999 410.650,924.932 " />
<polygon stroke="black" stroke-width="1" fill="grey" fill-opacity="0.25" points="376.833,906.766 343.012,925.069 376.833,924.999 " />
<polygon stroke="black" stroke-width="1" fill="grey" fill-opacity="0.25" points="343.010,906.833 309.186,925.142 343.012,925.069 " />
<polygon stroke="black" stroke-width="1" fill="grey" fill-opacity="0.25" points="309.183,906.904 275.357,925.215 309.186,925.142 " />
<polygon stroke="black" stroke-width="1" fill="grey" fill-opacity="0.25" points="275.354,906.976 241.525,925.287 275.357,925.215 " />
<polygon stroke="black" stroke-width="1" fill="grey" fill-opacity="0.25" points="241.523,907.048 207.692,925.354 241.525,925.287 " />
<polygon stroke="black" stroke-width="1" fill="grey" fill-opacity="0.25" points="207.695,907.118 173.856,925.405 207.692,925.354 " />
<polygon stroke="black" stroke-width="1" fill="grey" fill-opacity="0.25" points="173.874,907.174 140.015,925.407 173.856,925.405 " />
<polygon stroke="black" stroke-width="1" fill="grey" fill-opacity="0.25" points="140.074,907.193 106.157,925.279 140.015,925.407 " />
<polygon stroke="black" stroke-width="1" fill="grey" fill-opacity="0.25" points="106.327,907.102 72.237,924.800 106.157,925.279 " />
<polygon stroke="black" stroke-width="1" fill="grey" fill-opacity="0.25" points="72.710,906.707 38.365,924.764 72.237,924.800 " />
<polygon stroke="black" stroke-width="1" fill="grey" fill-opacity="0.25" points="38.432,906.597 -0.077,924.849 38.365,924.764 " />

</svg>
